<svg id="Graphic_Elements" data-name="Graphic Elements" xmlns="http://www.w3.org/2000/svg" viewBox="0 0 1200 1200"><path d="M992.79,714.61c-74.43,118.62-169.91,171-236.9,194.06-62.89,21.59-115.32,23.09-137,21.16C637,862.27,681.43,775,752.5,675.76c34.82-48.61,79.53-116,70.88-123.69-9.89-8.78-77.52,62.57-104.85,95.46-73.39,88.31-113.24,174.94-134.86,243.79A363.82,363.82,0,0,1,552.27,837c-35.78-77.1-37.21-153.7-4.26-227.68,43.51-97.67,136.46-154.75,234.88-215.18C838,360.28,894.18,325.76,944.56,282.72c31.19-26.64,79.44-10.78,89.23,29C1060.52,420.5,1076.41,581.35,992.79,714.61Z" style="fill:#075219"/><path d="M282.78,466.42c-35.53-49.3,91.41,29.38,124.32,63.23a838,838,0,0,1,90.5,110.23c2.66-6.06,5.22-12.55,7.53-19.45C523,567,518.23,516.45,491,470.18,455.14,409.09,389.69,378.4,320.4,345.9c-38.77-18.18-78.36-36.74-114.73-61.35-22.52-15.23-53.12-1.2-56.61,25.76C139.53,383.89,141,491,206,572.55c57.82,72.6,124.59,100,170.41,110.22,43,9.55,77.66,6.65,91.76,3.77-.9-2.3-1.87-4.67-2.85-7.06A778.37,778.37,0,0,0,372.18,563.6C338.59,529,305.85,498.43,282.78,466.42Z" style="fill:#51a234"/></svg>